<svg width="418" height="407" viewBox="0 0 418 407" fill="none" xmlns="http://www.w3.org/2000/svg">
<path d="M132.856 243.016C136.179 243.016 138.96 243.333 141.2 243.968C143.477 244.603 145.176 245.648 146.296 247.104C147.453 248.56 148.032 250.501 148.032 252.928C148.032 254.496 147.733 255.896 147.136 257.128C146.576 258.323 145.717 259.331 144.56 260.152C143.44 260.936 142.059 261.477 140.416 261.776V262.056C142.096 262.317 143.608 262.803 144.952 263.512C146.333 264.221 147.416 265.229 148.2 266.536C148.984 267.843 149.376 269.541 149.376 271.632C149.376 274.059 148.816 276.131 147.696 277.848C146.576 279.528 144.971 280.816 142.88 281.712C140.827 282.571 138.363 283 135.488 283H121.432V243.016H132.856ZM133.864 260.04C137.299 260.04 139.651 259.499 140.92 258.416C142.189 257.296 142.824 255.653 142.824 253.488C142.824 251.285 142.04 249.717 140.472 248.784C138.941 247.813 136.477 247.328 133.08 247.328H126.472V260.04H133.864ZM126.472 264.24V278.744H134.536C138.083 278.744 140.547 278.053 141.928 276.672C143.309 275.291 144 273.48 144 271.24C144 269.821 143.683 268.589 143.048 267.544C142.451 266.499 141.424 265.696 139.968 265.136C138.549 264.539 136.608 264.24 134.144 264.24H126.472ZM166.03 252.984V283H161.102V252.984H166.03ZM163.622 241.728C164.369 241.728 165.022 241.989 165.582 242.512C166.179 242.997 166.478 243.781 166.478 244.864C166.478 245.909 166.179 246.693 165.582 247.216C165.022 247.739 164.369 248 163.622 248C162.801 248 162.11 247.739 161.55 247.216C160.99 246.693 160.71 245.909 160.71 244.864C160.71 243.781 160.99 242.997 161.55 242.512C162.11 241.989 162.801 241.728 163.622 241.728ZM184.387 283H179.459V240.44H184.387V283ZM202.745 252.984V283H197.817V252.984H202.745ZM200.337 241.728C201.084 241.728 201.737 241.989 202.297 242.512C202.894 242.997 203.193 243.781 203.193 244.864C203.193 245.909 202.894 246.693 202.297 247.216C201.737 247.739 201.084 248 200.337 248C199.516 248 198.825 247.739 198.265 247.216C197.705 246.693 197.425 245.909 197.425 244.864C197.425 243.781 197.705 242.997 198.265 242.512C198.825 241.989 199.516 241.728 200.337 241.728ZM228.27 243.016C231.593 243.016 234.374 243.333 236.614 243.968C238.892 244.603 240.59 245.648 241.71 247.104C242.868 248.56 243.446 250.501 243.446 252.928C243.446 254.496 243.148 255.896 242.55 257.128C241.99 258.323 241.132 259.331 239.974 260.152C238.854 260.936 237.473 261.477 235.83 261.776V262.056C237.51 262.317 239.022 262.803 240.366 263.512C241.748 264.221 242.83 265.229 243.614 266.536C244.398 267.843 244.79 269.541 244.79 271.632C244.79 274.059 244.23 276.131 243.11 277.848C241.99 279.528 240.385 280.816 238.294 281.712C236.241 282.571 233.777 283 230.902 283H216.846V243.016H228.27ZM229.278 260.04C232.713 260.04 235.065 259.499 236.334 258.416C237.604 257.296 238.238 255.653 238.238 253.488C238.238 251.285 237.454 249.717 235.886 248.784C234.356 247.813 231.892 247.328 228.494 247.328H221.886V260.04H229.278ZM221.886 264.24V278.744H229.95C233.497 278.744 235.961 278.053 237.342 276.672C238.724 275.291 239.414 273.48 239.414 271.24C239.414 269.821 239.097 268.589 238.462 267.544C237.865 266.499 236.838 265.696 235.382 265.136C233.964 264.539 232.022 264.24 229.558 264.24H221.886ZM267.884 252.48C271.543 252.48 274.25 253.283 276.004 254.888C277.759 256.493 278.636 259.051 278.636 262.56V283H275.052L274.1 278.744H273.876C273.018 279.827 272.122 280.741 271.188 281.488C270.292 282.197 269.247 282.72 268.052 283.056C266.895 283.392 265.476 283.56 263.796 283.56C262.004 283.56 260.38 283.243 258.924 282.608C257.506 281.973 256.386 281.003 255.564 279.696C254.743 278.352 254.332 276.672 254.332 274.656C254.332 271.669 255.508 269.373 257.86 267.768C260.212 266.125 263.834 265.229 268.724 265.08L273.82 264.912V263.12C273.82 260.619 273.279 258.883 272.196 257.912C271.114 256.941 269.583 256.456 267.604 256.456C266.036 256.456 264.543 256.699 263.124 257.184C261.706 257.632 260.38 258.155 259.148 258.752L257.636 255.056C258.943 254.347 260.492 253.749 262.284 253.264C264.076 252.741 265.943 252.48 267.884 252.48ZM269.34 268.496C265.607 268.645 263.012 269.243 261.556 270.288C260.138 271.333 259.428 272.808 259.428 274.712C259.428 276.392 259.932 277.624 260.94 278.408C261.986 279.192 263.311 279.584 264.916 279.584C267.455 279.584 269.564 278.893 271.244 277.512C272.924 276.093 273.764 273.928 273.764 271.016V268.328L269.34 268.496ZM287.123 252.984H292.387L298.883 270.064C299.256 271.072 299.592 272.043 299.891 272.976C300.227 273.909 300.526 274.824 300.787 275.72C301.048 276.579 301.254 277.419 301.403 278.24H301.627C301.851 277.307 302.206 276.093 302.691 274.6C303.176 273.069 303.68 271.539 304.203 270.008L310.307 252.984H315.627L302.691 287.144C301.982 289.011 301.142 290.635 300.171 292.016C299.238 293.435 298.08 294.517 296.699 295.264C295.355 296.048 293.712 296.44 291.771 296.44C290.875 296.44 290.091 296.384 289.419 296.272C288.747 296.197 288.168 296.104 287.683 295.992V292.072C288.094 292.147 288.579 292.221 289.139 292.296C289.736 292.371 290.352 292.408 290.987 292.408C292.144 292.408 293.134 292.184 293.955 291.736C294.814 291.325 295.542 290.709 296.139 289.888C296.736 289.104 297.24 288.171 297.651 287.088L299.219 283.112L287.123 252.984Z" fill="#98B964"/>
<path d="M132.817 106.343L155.805 106.356L171.166 178.899C171.69 181.394 173.128 183.635 175.229 185.231C177.329 186.826 179.958 187.675 182.655 187.628L238.515 187.659C241.212 187.709 243.842 186.864 245.944 185.27C248.046 183.677 249.487 181.438 250.014 178.944L259.235 133.499L161.537 133.444M184.479 214.714C184.477 217.706 181.903 220.13 178.729 220.128C175.555 220.126 172.983 217.699 172.985 214.708C172.986 211.716 175.561 209.292 178.735 209.294C181.909 209.296 184.48 211.722 184.479 214.714ZM247.695 214.75C247.693 217.741 245.119 220.165 241.945 220.164C238.771 220.162 236.2 217.735 236.201 214.743C236.203 211.751 238.777 209.328 241.951 209.329C245.125 209.331 247.697 211.758 247.695 214.75Z" stroke="#98B964" stroke-width="7.5" stroke-linecap="round" stroke-linejoin="round"/>
</svg>
