<svg width="411" height="152" viewBox="0 0 411 152" fill="none" xmlns="http://www.w3.org/2000/svg">
<rect width="411" height="152" fill="#98B964"/>
<path d="M146.264 61.304C150.061 61.304 153.24 61.6667 155.8 62.392C158.403 63.1173 160.344 64.312 161.624 65.976C162.947 67.64 163.608 69.8587 163.608 72.632C163.608 74.424 163.267 76.024 162.584 77.432C161.944 78.7973 160.963 79.9493 159.64 80.888C158.36 81.784 156.781 82.4027 154.904 82.744V83.064C156.824 83.3627 158.552 83.9173 160.088 84.728C161.667 85.5387 162.904 86.6907 163.8 88.184C164.696 89.6773 165.144 91.6187 165.144 94.008C165.144 96.7813 164.504 99.1493 163.224 101.112C161.944 103.032 160.109 104.504 157.72 105.528C155.373 106.509 152.557 107 149.272 107H133.208V61.304H146.264ZM147.416 80.76C151.341 80.76 154.029 80.1413 155.48 78.904C156.931 77.624 157.656 75.7467 157.656 73.272C157.656 70.7547 156.76 68.9627 154.968 67.896C153.219 66.7867 150.403 66.232 146.52 66.232H138.968V80.76H147.416ZM138.968 85.56V102.136H148.184C152.237 102.136 155.053 101.347 156.632 99.768C158.211 98.1893 159 96.12 159 93.56C159 91.9387 158.637 90.5307 157.912 89.336C157.229 88.1413 156.056 87.224 154.392 86.584C152.771 85.9013 150.552 85.56 147.736 85.56H138.968ZM181.617 72.696V107H175.985V72.696H181.617ZM178.865 59.832C179.718 59.832 180.465 60.1307 181.105 60.728C181.788 61.2827 182.129 62.1787 182.129 63.416C182.129 64.6107 181.788 65.5067 181.105 66.104C180.465 66.7013 179.718 67 178.865 67C177.926 67 177.137 66.7013 176.497 66.104C175.857 65.5067 175.537 64.6107 175.537 63.416C175.537 62.1787 175.857 61.2827 176.497 60.728C177.137 60.1307 177.926 59.832 178.865 59.832ZM200.037 107H194.405V58.36H200.037V107ZM218.457 72.696V107H212.825V72.696H218.457ZM215.705 59.832C216.558 59.832 217.305 60.1307 217.945 60.728C218.628 61.2827 218.969 62.1787 218.969 63.416C218.969 64.6107 218.628 65.5067 217.945 66.104C217.305 66.7013 216.558 67 215.705 67C214.766 67 213.977 66.7013 213.337 66.104C212.697 65.5067 212.377 64.6107 212.377 63.416C212.377 62.1787 212.697 61.2827 213.337 60.728C213.977 60.1307 214.766 59.832 215.705 59.832ZM245.069 61.304C248.866 61.304 252.045 61.6667 254.605 62.392C257.208 63.1173 259.149 64.312 260.429 65.976C261.752 67.64 262.413 69.8587 262.413 72.632C262.413 74.424 262.072 76.024 261.389 77.432C260.749 78.7973 259.768 79.9493 258.445 80.888C257.165 81.784 255.586 82.4027 253.709 82.744V83.064C255.629 83.3627 257.357 83.9173 258.893 84.728C260.472 85.5387 261.709 86.6907 262.605 88.184C263.501 89.6773 263.949 91.6187 263.949 94.008C263.949 96.7813 263.309 99.1493 262.029 101.112C260.749 103.032 258.914 104.504 256.525 105.528C254.178 106.509 251.362 107 248.077 107H232.013V61.304H245.069ZM246.221 80.76C250.146 80.76 252.834 80.1413 254.285 78.904C255.736 77.624 256.461 75.7467 256.461 73.272C256.461 70.7547 255.565 68.9627 253.773 67.896C252.024 66.7867 249.208 66.232 245.325 66.232H237.773V80.76H246.221ZM237.773 85.56V102.136H246.989C251.042 102.136 253.858 101.347 255.437 99.768C257.016 98.1893 257.805 96.12 257.805 93.56C257.805 91.9387 257.442 90.5307 256.717 89.336C256.034 88.1413 254.861 87.224 253.197 86.584C251.576 85.9013 249.357 85.56 246.541 85.56H237.773ZM287.782 72.12C291.963 72.12 295.057 73.0373 297.062 74.872C299.067 76.7067 300.07 79.6293 300.07 83.64V107H295.974L294.886 102.136H294.63C293.649 103.373 292.625 104.419 291.558 105.272C290.534 106.083 289.339 106.68 287.974 107.064C286.651 107.448 285.03 107.64 283.11 107.64C281.062 107.64 279.206 107.277 277.542 106.552C275.921 105.827 274.641 104.717 273.702 103.224C272.763 101.688 272.294 99.768 272.294 97.464C272.294 94.0507 273.638 91.4267 276.326 89.592C279.014 87.7147 283.153 86.6907 288.742 86.52L294.566 86.328V84.28C294.566 81.4213 293.947 79.4373 292.71 78.328C291.473 77.2187 289.723 76.664 287.462 76.664C285.67 76.664 283.963 76.9413 282.342 77.496C280.721 78.008 279.206 78.6053 277.798 79.288L276.07 75.064C277.563 74.2533 279.334 73.5707 281.382 73.016C283.43 72.4187 285.563 72.12 287.782 72.12ZM289.446 90.424C285.179 90.5947 282.214 91.2773 280.55 92.472C278.929 93.6667 278.118 95.352 278.118 97.528C278.118 99.448 278.694 100.856 279.846 101.752C281.041 102.648 282.555 103.096 284.39 103.096C287.291 103.096 289.702 102.307 291.622 100.728C293.542 99.1067 294.502 96.632 294.502 93.304V90.232L289.446 90.424ZM307.209 72.696H313.225L320.649 92.216C321.076 93.368 321.46 94.4773 321.801 95.544C322.185 96.6107 322.526 97.656 322.825 98.68C323.124 99.6613 323.358 100.621 323.529 101.56H323.785C324.041 100.493 324.446 99.1067 325.001 97.4C325.556 95.6507 326.132 93.9013 326.729 92.152L333.705 72.696H339.785L325.001 111.736C324.19 113.869 323.23 115.725 322.121 117.304C321.054 118.925 319.732 120.163 318.153 121.016C316.617 121.912 314.74 122.36 312.521 122.36C311.497 122.36 310.601 122.296 309.833 122.168C309.065 122.083 308.404 121.976 307.849 121.848V117.368C308.318 117.453 308.873 117.539 309.513 117.624C310.196 117.709 310.9 117.752 311.625 117.752C312.948 117.752 314.078 117.496 315.017 116.984C315.998 116.515 316.83 115.811 317.513 114.872C318.196 113.976 318.772 112.909 319.241 111.672L321.033 107.128L307.209 72.696Z" fill="white"/>
<g clip-path="url(#clip0_1_65)">
<path d="M58.6169 53.7116L68.9441 53.7174L75.8429 90.0097C76.0783 91.2575 76.7243 92.3787 77.6679 93.1769C78.6115 93.9752 79.7924 94.3996 81.0041 94.3759L106.099 94.39C107.311 94.415 108.492 93.992 109.437 93.1948C110.381 92.3976 111.029 91.2772 111.265 90.0296L115.409 67.2941L71.5183 67.2694M81.8227 107.927C81.8218 109.424 80.6652 110.636 79.2393 110.636C77.8134 110.635 76.6582 109.421 76.659 107.924C76.6599 106.427 77.8165 105.215 79.2424 105.215C80.6683 105.216 81.8235 106.43 81.8227 107.927ZM110.223 107.943C110.222 109.44 109.065 110.652 107.639 110.652C106.213 110.651 105.058 109.437 105.059 107.94C105.06 106.443 106.216 105.231 107.642 105.231C109.068 105.232 110.223 106.446 110.223 107.943Z" stroke="white" stroke-width="7.5" stroke-linecap="round" stroke-linejoin="round"/>
</g>
<defs>
<clipPath id="clip0_1_65">
<rect width="61.9635" height="65.0427" fill="white" transform="translate(56.0366 51) rotate(0.0322256)"/>
</clipPath>
</defs>
</svg>
