<svg width="205" height="200" viewBox="0 0 205 200" fill="none" xmlns="http://www.w3.org/2000/svg">
<rect width="205" height="200" fill="#98B964"/>
<path d="M23.2917 38.1667L48.4722 38.1808L65.2967 120.715C65.8708 123.552 67.4461 126.102 69.7468 127.917C72.0475 129.733 74.9271 130.698 77.8814 130.644L139.07 130.679C142.024 130.736 144.905 129.774 147.208 127.961C149.511 126.148 151.089 123.6 151.666 120.763L161.767 69.0602L54.75 69M79.8785 161.461C79.8766 164.865 77.0567 167.623 73.5799 167.621C70.1032 167.619 67.2864 164.858 67.2883 161.454C67.2902 158.05 70.1102 155.292 73.5869 155.294C77.0636 155.296 79.8805 158.057 79.8785 161.461ZM149.125 161.5C149.123 164.904 146.303 167.662 142.826 167.66C139.35 167.658 136.533 164.897 136.535 161.493C136.537 158.089 139.357 155.331 142.833 155.333C146.31 155.335 149.127 158.096 149.125 161.5Z" stroke="white" stroke-width="7.5" stroke-linecap="round" stroke-linejoin="round"/>
<path d="M106.147 86.442C108.936 86.442 111.27 86.7083 113.15 87.241C115.061 87.7737 116.487 88.651 117.427 89.873C118.398 91.095 118.884 92.7243 118.884 94.761C118.884 96.077 118.633 97.252 118.132 98.286C117.662 99.2887 116.941 100.135 115.97 100.824C115.03 101.482 113.871 101.936 112.492 102.187V102.422C113.902 102.641 115.171 103.049 116.299 103.644C117.458 104.239 118.367 105.085 119.025 106.182C119.683 107.279 120.012 108.704 120.012 110.459C120.012 112.496 119.542 114.235 118.602 115.676C117.662 117.086 116.315 118.167 114.56 118.919C112.837 119.64 110.769 120 108.356 120H96.559V86.442H106.147ZM106.993 100.73C109.876 100.73 111.85 100.276 112.915 99.367C113.98 98.427 114.513 97.0483 114.513 95.231C114.513 93.3823 113.855 92.0663 112.539 91.283C111.254 90.4683 109.186 90.061 106.335 90.061H100.789V100.73H106.993ZM100.789 104.255V116.428H107.557C110.534 116.428 112.602 115.848 113.761 114.689C114.92 113.53 115.5 112.01 115.5 110.13C115.5 108.939 115.234 107.905 114.701 107.028C114.2 106.151 113.338 105.477 112.116 105.007C110.925 104.506 109.296 104.255 107.228 104.255H100.789Z" fill="white"/>
</svg>
